<mxfile host="Electron" agent="Mozilla/5.0 (Windows NT 10.0; Win64; x64) AppleWebKit/537.36 (KHTML, like Gecko) draw.io/28.1.2 Chrome/138.0.7204.243 Electron/37.4.0 Safari/537.36" version="28.1.2">
  <diagram name="Page-1" id="mqSYYGB8IjCxmN6n_opE">
    <mxGraphModel dx="855" dy="1611" grid="1" gridSize="10" guides="1" tooltips="1" connect="1" arrows="1" fold="1" page="1" pageScale="1" pageWidth="850" pageHeight="1100" math="0" shadow="0">
      <root>
        <mxCell id="0" />
        <mxCell id="1" parent="0" />
        <mxCell id="2-tAWzngIVsMG5eLGlZQ-1" value="Hotel Nexus" style="ellipse;whiteSpace=wrap;html=1;aspect=fixed;fillColor=#a20025;fontColor=#ffffff;strokeColor=#6F0000;" vertex="1" parent="1">
          <mxGeometry x="360" y="200" width="150" height="150" as="geometry" />
        </mxCell>
        <mxCell id="2-tAWzngIVsMG5eLGlZQ-2" value="Hotel Admin/Manager" style="rounded=0;whiteSpace=wrap;html=1;fillColor=#e51400;fontColor=#ffffff;strokeColor=#B20000;" vertex="1" parent="1">
          <mxGeometry x="850" y="100" width="120" height="385" as="geometry" />
        </mxCell>
        <mxCell id="2-tAWzngIVsMG5eLGlZQ-3" value="Client" style="rounded=0;whiteSpace=wrap;html=1;fillColor=#0050ef;fontColor=#ffffff;strokeColor=#001DBC;" vertex="1" parent="1">
          <mxGeometry x="20" y="155" width="120" height="240" as="geometry" />
        </mxCell>
        <mxCell id="2-tAWzngIVsMG5eLGlZQ-4" value="" style="endArrow=classic;html=1;rounded=0;exitX=1;exitY=0.221;exitDx=0;exitDy=0;exitPerimeter=0;" edge="1" parent="1" source="2-tAWzngIVsMG5eLGlZQ-12" target="2-tAWzngIVsMG5eLGlZQ-1">
          <mxGeometry width="50" height="50" relative="1" as="geometry">
            <mxPoint x="150" y="210" as="sourcePoint" />
            <mxPoint x="361.95000000000005" y="218.04999999999995" as="targetPoint" />
          </mxGeometry>
        </mxCell>
        <mxCell id="2-tAWzngIVsMG5eLGlZQ-5" value="" style="endArrow=classic;html=1;rounded=0;entryX=0;entryY=0.5;entryDx=0;entryDy=0;exitX=1;exitY=0.5;exitDx=0;exitDy=0;" edge="1" parent="1" source="2-tAWzngIVsMG5eLGlZQ-9" target="2-tAWzngIVsMG5eLGlZQ-1">
          <mxGeometry width="50" height="50" relative="1" as="geometry">
            <mxPoint x="140" y="480" as="sourcePoint" />
            <mxPoint x="190" y="430" as="targetPoint" />
          </mxGeometry>
        </mxCell>
        <mxCell id="2-tAWzngIVsMG5eLGlZQ-7" value="" style="endArrow=classic;html=1;rounded=0;entryX=0.407;entryY=0.033;entryDx=0;entryDy=0;entryPerimeter=0;exitX=0.297;exitY=0.971;exitDx=0;exitDy=0;exitPerimeter=0;" edge="1" parent="1" source="2-tAWzngIVsMG5eLGlZQ-19" target="2-tAWzngIVsMG5eLGlZQ-1">
          <mxGeometry width="50" height="50" relative="1" as="geometry">
            <mxPoint x="290" y="110" as="sourcePoint" />
            <mxPoint x="340" y="60" as="targetPoint" />
          </mxGeometry>
        </mxCell>
        <mxCell id="2-tAWzngIVsMG5eLGlZQ-8" value="" style="endArrow=classic;html=1;rounded=0;entryX=1;entryY=0.5;entryDx=0;entryDy=0;" edge="1" parent="1" source="2-tAWzngIVsMG5eLGlZQ-11" target="2-tAWzngIVsMG5eLGlZQ-1">
          <mxGeometry width="50" height="50" relative="1" as="geometry">
            <mxPoint x="580" y="380" as="sourcePoint" />
            <mxPoint x="630" y="330" as="targetPoint" />
          </mxGeometry>
        </mxCell>
        <mxCell id="2-tAWzngIVsMG5eLGlZQ-10" value="" style="endArrow=classic;html=1;rounded=0;entryX=0;entryY=0.5;entryDx=0;entryDy=0;exitX=1;exitY=0.5;exitDx=0;exitDy=0;" edge="1" parent="1" source="2-tAWzngIVsMG5eLGlZQ-3" target="2-tAWzngIVsMG5eLGlZQ-9">
          <mxGeometry width="50" height="50" relative="1" as="geometry">
            <mxPoint x="140" y="275" as="sourcePoint" />
            <mxPoint x="360" y="275" as="targetPoint" />
          </mxGeometry>
        </mxCell>
        <mxCell id="2-tAWzngIVsMG5eLGlZQ-9" value="Book Room" style="text;html=1;align=center;verticalAlign=middle;resizable=0;points=[];autosize=1;strokeColor=none;fillColor=none;" vertex="1" parent="1">
          <mxGeometry x="210" y="260" width="90" height="30" as="geometry" />
        </mxCell>
        <mxCell id="2-tAWzngIVsMG5eLGlZQ-13" value="" style="endArrow=classic;html=1;rounded=0;entryX=1;entryY=0.5;entryDx=0;entryDy=0;" edge="1" parent="1" source="2-tAWzngIVsMG5eLGlZQ-2" target="2-tAWzngIVsMG5eLGlZQ-11">
          <mxGeometry width="50" height="50" relative="1" as="geometry">
            <mxPoint x="640" y="292" as="sourcePoint" />
            <mxPoint x="510" y="275" as="targetPoint" />
          </mxGeometry>
        </mxCell>
        <mxCell id="2-tAWzngIVsMG5eLGlZQ-11" value="Add rooms" style="text;html=1;align=center;verticalAlign=middle;resizable=0;points=[];autosize=1;strokeColor=none;fillColor=none;" vertex="1" parent="1">
          <mxGeometry x="600" y="260" width="80" height="30" as="geometry" />
        </mxCell>
        <mxCell id="2-tAWzngIVsMG5eLGlZQ-16" value="" style="endArrow=classic;html=1;rounded=0;entryX=0.953;entryY=0.253;entryDx=0;entryDy=0;entryPerimeter=0;exitX=-0.025;exitY=0.218;exitDx=0;exitDy=0;exitPerimeter=0;" edge="1" parent="1" source="2-tAWzngIVsMG5eLGlZQ-15" target="2-tAWzngIVsMG5eLGlZQ-1">
          <mxGeometry width="50" height="50" relative="1" as="geometry">
            <mxPoint x="550" y="390" as="sourcePoint" />
            <mxPoint x="600" y="340" as="targetPoint" />
          </mxGeometry>
        </mxCell>
        <mxCell id="2-tAWzngIVsMG5eLGlZQ-17" value="" style="endArrow=classic;html=1;rounded=0;entryX=0.953;entryY=0.253;entryDx=0;entryDy=0;entryPerimeter=0;exitX=-0.025;exitY=0.218;exitDx=0;exitDy=0;exitPerimeter=0;" edge="1" parent="1" source="2-tAWzngIVsMG5eLGlZQ-2" target="2-tAWzngIVsMG5eLGlZQ-15">
          <mxGeometry width="50" height="50" relative="1" as="geometry">
            <mxPoint x="727" y="206" as="sourcePoint" />
            <mxPoint x="503" y="238" as="targetPoint" />
          </mxGeometry>
        </mxCell>
        <mxCell id="2-tAWzngIVsMG5eLGlZQ-15" value="View Payments" style="text;html=1;align=center;verticalAlign=middle;resizable=0;points=[];autosize=1;strokeColor=none;fillColor=none;" vertex="1" parent="1">
          <mxGeometry x="580" y="155" width="110" height="30" as="geometry" />
        </mxCell>
        <mxCell id="2-tAWzngIVsMG5eLGlZQ-18" value="Hotel Staff" style="rounded=0;whiteSpace=wrap;html=1;fillColor=#6d8764;fontColor=#ffffff;strokeColor=default;" vertex="1" parent="1">
          <mxGeometry x="267.5" y="-50" width="335" height="70" as="geometry" />
        </mxCell>
        <mxCell id="2-tAWzngIVsMG5eLGlZQ-20" value="" style="endArrow=classic;html=1;rounded=0;entryX=0.407;entryY=0.033;entryDx=0;entryDy=0;entryPerimeter=0;exitX=0.297;exitY=0.971;exitDx=0;exitDy=0;exitPerimeter=0;" edge="1" parent="1" source="2-tAWzngIVsMG5eLGlZQ-18" target="2-tAWzngIVsMG5eLGlZQ-19">
          <mxGeometry width="50" height="50" relative="1" as="geometry">
            <mxPoint x="367" y="18" as="sourcePoint" />
            <mxPoint x="421" y="205" as="targetPoint" />
          </mxGeometry>
        </mxCell>
        <mxCell id="2-tAWzngIVsMG5eLGlZQ-19" value="View Bookings" style="text;html=1;align=center;verticalAlign=middle;resizable=0;points=[];autosize=1;strokeColor=none;fillColor=none;" vertex="1" parent="1">
          <mxGeometry x="355" y="100" width="100" height="30" as="geometry" />
        </mxCell>
        <mxCell id="2-tAWzngIVsMG5eLGlZQ-21" value="" style="endArrow=classic;html=1;rounded=0;entryX=0.993;entryY=0.62;entryDx=0;entryDy=0;entryPerimeter=0;exitX=-0.011;exitY=0.267;exitDx=0;exitDy=0;exitPerimeter=0;" edge="1" parent="1" source="2-tAWzngIVsMG5eLGlZQ-27" target="2-tAWzngIVsMG5eLGlZQ-1">
          <mxGeometry width="50" height="50" relative="1" as="geometry">
            <mxPoint x="240" y="490" as="sourcePoint" />
            <mxPoint x="290" y="440" as="targetPoint" />
          </mxGeometry>
        </mxCell>
        <mxCell id="2-tAWzngIVsMG5eLGlZQ-22" value="" style="endArrow=classic;html=1;rounded=0;entryX=0.667;entryY=0.007;entryDx=0;entryDy=0;entryPerimeter=0;exitX=0.458;exitY=1.067;exitDx=0;exitDy=0;exitPerimeter=0;" edge="1" parent="1" source="2-tAWzngIVsMG5eLGlZQ-23" target="2-tAWzngIVsMG5eLGlZQ-1">
          <mxGeometry width="50" height="50" relative="1" as="geometry">
            <mxPoint x="680" y="70" as="sourcePoint" />
            <mxPoint x="730" y="20" as="targetPoint" />
          </mxGeometry>
        </mxCell>
        <mxCell id="2-tAWzngIVsMG5eLGlZQ-24" value="" style="endArrow=classic;html=1;rounded=0;entryX=0.412;entryY=0.1;entryDx=0;entryDy=0;entryPerimeter=0;exitX=0.75;exitY=1;exitDx=0;exitDy=0;" edge="1" parent="1" source="2-tAWzngIVsMG5eLGlZQ-18" target="2-tAWzngIVsMG5eLGlZQ-23">
          <mxGeometry width="50" height="50" relative="1" as="geometry">
            <mxPoint x="519" y="20" as="sourcePoint" />
            <mxPoint x="460" y="201" as="targetPoint" />
          </mxGeometry>
        </mxCell>
        <mxCell id="2-tAWzngIVsMG5eLGlZQ-23" value="Update room status" style="text;html=1;align=center;verticalAlign=middle;resizable=0;points=[];autosize=1;strokeColor=none;fillColor=none;" vertex="1" parent="1">
          <mxGeometry x="472.5" y="45" width="130" height="30" as="geometry" />
        </mxCell>
        <mxCell id="2-tAWzngIVsMG5eLGlZQ-25" value="" style="endArrow=classic;html=1;rounded=0;exitX=1;exitY=0.221;exitDx=0;exitDy=0;exitPerimeter=0;" edge="1" parent="1" source="2-tAWzngIVsMG5eLGlZQ-3" target="2-tAWzngIVsMG5eLGlZQ-12">
          <mxGeometry width="50" height="50" relative="1" as="geometry">
            <mxPoint x="140" y="208" as="sourcePoint" />
            <mxPoint x="362" y="259" as="targetPoint" />
          </mxGeometry>
        </mxCell>
        <mxCell id="2-tAWzngIVsMG5eLGlZQ-12" value="Cancel Booking" style="text;html=1;align=center;verticalAlign=middle;resizable=0;points=[];autosize=1;strokeColor=none;fillColor=none;" vertex="1" parent="1">
          <mxGeometry x="220" y="220" width="110" height="30" as="geometry" />
        </mxCell>
        <mxCell id="2-tAWzngIVsMG5eLGlZQ-26" value="" style="endArrow=classic;html=1;rounded=0;entryX=0.913;entryY=0.787;entryDx=0;entryDy=0;entryPerimeter=0;exitX=0;exitY=0.75;exitDx=0;exitDy=0;" edge="1" parent="1" source="2-tAWzngIVsMG5eLGlZQ-28" target="2-tAWzngIVsMG5eLGlZQ-1">
          <mxGeometry width="50" height="50" relative="1" as="geometry">
            <mxPoint x="435" y="425" as="sourcePoint" />
            <mxPoint x="485" y="375" as="targetPoint" />
          </mxGeometry>
        </mxCell>
        <mxCell id="2-tAWzngIVsMG5eLGlZQ-29" value="" style="endArrow=classic;html=1;rounded=0;entryX=0.913;entryY=0.787;entryDx=0;entryDy=0;entryPerimeter=0;exitX=0;exitY=0.75;exitDx=0;exitDy=0;" edge="1" parent="1" source="2-tAWzngIVsMG5eLGlZQ-2" target="2-tAWzngIVsMG5eLGlZQ-28">
          <mxGeometry width="50" height="50" relative="1" as="geometry">
            <mxPoint x="730" y="355" as="sourcePoint" />
            <mxPoint x="497" y="318" as="targetPoint" />
          </mxGeometry>
        </mxCell>
        <mxCell id="2-tAWzngIVsMG5eLGlZQ-28" value="Add staff" style="text;html=1;align=center;verticalAlign=middle;resizable=0;points=[];autosize=1;strokeColor=none;fillColor=none;" vertex="1" parent="1">
          <mxGeometry x="570" y="350" width="70" height="30" as="geometry" />
        </mxCell>
        <mxCell id="2-tAWzngIVsMG5eLGlZQ-30" value="" style="endArrow=classic;html=1;rounded=0;entryX=0.133;entryY=0.813;entryDx=0;entryDy=0;entryPerimeter=0;exitX=1;exitY=0.721;exitDx=0;exitDy=0;exitPerimeter=0;" edge="1" parent="1" source="2-tAWzngIVsMG5eLGlZQ-14" target="2-tAWzngIVsMG5eLGlZQ-1">
          <mxGeometry width="50" height="50" relative="1" as="geometry">
            <mxPoint x="180" y="370" as="sourcePoint" />
            <mxPoint x="230" y="320" as="targetPoint" />
          </mxGeometry>
        </mxCell>
        <mxCell id="2-tAWzngIVsMG5eLGlZQ-31" value="" style="endArrow=classic;html=1;rounded=0;entryX=0.133;entryY=0.813;entryDx=0;entryDy=0;entryPerimeter=0;exitX=1;exitY=0.721;exitDx=0;exitDy=0;exitPerimeter=0;" edge="1" parent="1" source="2-tAWzngIVsMG5eLGlZQ-3" target="2-tAWzngIVsMG5eLGlZQ-14">
          <mxGeometry width="50" height="50" relative="1" as="geometry">
            <mxPoint x="140" y="328" as="sourcePoint" />
            <mxPoint x="380" y="322" as="targetPoint" />
          </mxGeometry>
        </mxCell>
        <mxCell id="2-tAWzngIVsMG5eLGlZQ-14" value="Browse Options" style="text;html=1;align=center;verticalAlign=middle;resizable=0;points=[];autosize=1;strokeColor=none;fillColor=none;" vertex="1" parent="1">
          <mxGeometry x="200" y="320" width="110" height="30" as="geometry" />
        </mxCell>
        <mxCell id="2-tAWzngIVsMG5eLGlZQ-32" value="" style="endArrow=classic;html=1;rounded=0;entryX=0.993;entryY=0.62;entryDx=0;entryDy=0;entryPerimeter=0;exitX=-0.017;exitY=0.646;exitDx=0;exitDy=0;exitPerimeter=0;" edge="1" parent="1" source="2-tAWzngIVsMG5eLGlZQ-2" target="2-tAWzngIVsMG5eLGlZQ-27">
          <mxGeometry width="50" height="50" relative="1" as="geometry">
            <mxPoint x="728" y="326" as="sourcePoint" />
            <mxPoint x="509" y="293" as="targetPoint" />
          </mxGeometry>
        </mxCell>
        <mxCell id="2-tAWzngIVsMG5eLGlZQ-27" value="Add information" style="text;html=1;align=center;verticalAlign=middle;resizable=0;points=[];autosize=1;strokeColor=none;fillColor=none;" vertex="1" parent="1">
          <mxGeometry x="590" y="300" width="110" height="30" as="geometry" />
        </mxCell>
        <mxCell id="2-tAWzngIVsMG5eLGlZQ-35" value="" style="endArrow=classic;html=1;rounded=0;exitX=0.04;exitY=0.957;exitDx=0;exitDy=0;exitPerimeter=0;entryX=0;entryY=0;entryDx=0;entryDy=0;" edge="1" parent="1" source="2-tAWzngIVsMG5eLGlZQ-36" target="2-tAWzngIVsMG5eLGlZQ-1">
          <mxGeometry width="50" height="50" relative="1" as="geometry">
            <mxPoint x="200" y="120" as="sourcePoint" />
            <mxPoint x="250" y="70" as="targetPoint" />
          </mxGeometry>
        </mxCell>
        <mxCell id="2-tAWzngIVsMG5eLGlZQ-37" value="" style="endArrow=classic;html=1;rounded=0;exitX=0.04;exitY=0.957;exitDx=0;exitDy=0;exitPerimeter=0;entryX=0;entryY=0;entryDx=0;entryDy=0;" edge="1" parent="1" source="2-tAWzngIVsMG5eLGlZQ-18" target="2-tAWzngIVsMG5eLGlZQ-36">
          <mxGeometry width="50" height="50" relative="1" as="geometry">
            <mxPoint x="281" y="17" as="sourcePoint" />
            <mxPoint x="382" y="222" as="targetPoint" />
          </mxGeometry>
        </mxCell>
        <mxCell id="2-tAWzngIVsMG5eLGlZQ-36" value="Make report to&amp;nbsp;&lt;div&gt;manager&lt;/div&gt;" style="text;html=1;align=center;verticalAlign=middle;resizable=0;points=[];autosize=1;strokeColor=none;fillColor=none;" vertex="1" parent="1">
          <mxGeometry x="260" y="45" width="100" height="40" as="geometry" />
        </mxCell>
        <mxCell id="2-tAWzngIVsMG5eLGlZQ-38" value="" style="endArrow=classic;html=1;rounded=0;entryX=0.025;entryY=0.307;entryDx=0;entryDy=0;entryPerimeter=0;exitX=1.013;exitY=0.393;exitDx=0;exitDy=0;exitPerimeter=0;" edge="1" parent="1" source="2-tAWzngIVsMG5eLGlZQ-39" target="2-tAWzngIVsMG5eLGlZQ-2">
          <mxGeometry width="50" height="50" relative="1" as="geometry">
            <mxPoint x="425" y="310" as="sourcePoint" />
            <mxPoint x="479.5" y="428" as="targetPoint" />
          </mxGeometry>
        </mxCell>
        <mxCell id="2-tAWzngIVsMG5eLGlZQ-40" value="" style="endArrow=classic;html=1;rounded=0;entryX=0.025;entryY=0.307;entryDx=0;entryDy=0;entryPerimeter=0;exitX=1.013;exitY=0.393;exitDx=0;exitDy=0;exitPerimeter=0;" edge="1" parent="1" source="2-tAWzngIVsMG5eLGlZQ-1" target="2-tAWzngIVsMG5eLGlZQ-39">
          <mxGeometry width="50" height="50" relative="1" as="geometry">
            <mxPoint x="512" y="259" as="sourcePoint" />
            <mxPoint x="793" y="221" as="targetPoint" />
          </mxGeometry>
        </mxCell>
        <mxCell id="2-tAWzngIVsMG5eLGlZQ-39" value="Sends report to admin&lt;div&gt;or manager&lt;/div&gt;" style="text;html=1;align=center;verticalAlign=middle;resizable=0;points=[];autosize=1;strokeColor=none;fillColor=none;" vertex="1" parent="1">
          <mxGeometry x="615" y="210" width="140" height="40" as="geometry" />
        </mxCell>
      </root>
    </mxGraphModel>
  </diagram>
</mxfile>
